<?xml version="1.0" encoding="utf-8"?>
<!-- Generator: Adobe Illustrator 24.1.1, SVG Export Plug-In . SVG Version: 6.00 Build 0)  -->
<svg version="1.1" id="Layer_1" xmlns="http://www.w3.org/2000/svg" xmlns:xlink="http://www.w3.org/1999/xlink" x="0px" y="0px"
	 viewBox="0 0 134.6 108.3" style="enable-background:new 0 0 134.6 108.3;" xml:space="preserve">
<style type="text/css">
	.st0{fill:#E31E6F;}
	.st1{fill:#FFF0FF;}
	.st2{fill:#F5F0EF;}
</style>
<g>
	<path class="st0" d="M57.5,40.1c-13.3-0.9-18.6,8.4-19,9.1c-0.4-0.8-5.7-10-19-9.1C3,41.2-0.8,54.1,0.1,61
		c1.4,10.9,6.2,19.7,38.3,47.2v0.1c0,0,0,0,0,0c0,0,0,0,0,0v-0.1C70.7,80.7,75.4,71.9,76.8,61C77.7,54.1,74,41.2,57.5,40.1z"/>
	<path class="st0" d="M115.1,40.1c-0.6,0-1.2-0.1-1.8-0.1c-12,0-16.8,8.5-17.2,9.2c-0.4-0.8-5.2-9.2-17.2-9.2c-0.6,0-1.2,0-1.8,0.1
		c-0.7,0-1.3,0.1-1.9,0.2c0.6,0.6,1.2,1.1,1.7,1.7c0.1,0,0.2,0,0.3,0c0.6,0,1.1-0.1,1.7-0.1c10.9,0,15.1,7.4,15.6,8.2l1.6,3.1
		l1.6-3.1c0.5-0.8,4.7-8.2,15.6-8.2c0.5,0,1.1,0,1.7,0.1c6.1,0.4,10.8,2.6,14,6.4c3.4,4.1,4.1,9.3,3.7,12.5
		c-1.2,9.6-4.4,17.4-36.5,45c-10.6-9.1-18-16-23.2-21.5c-0.4,0.5-0.8,1-1.2,1.4c5.6,5.9,13.4,13.1,24.4,22.5v0.1c0,0,0,0,0,0
		c0,0,0,0,0,0v-0.1C128.3,80.7,133,71.9,134.4,61C135.3,54.1,131.6,41.2,115.1,40.1z"/>
	<circle class="st0" cx="96.1" cy="18.7" r="18.7"/>
	<path class="st0" d="M38.5,1.9c9.3,0,16.9,7.6,16.9,16.9s-7.6,16.9-16.9,16.9S21.7,28,21.7,18.7S29.2,1.9,38.5,1.9 M38.5,0
		C28.2,0,19.8,8.4,19.8,18.7c0,10.3,8.4,18.7,18.7,18.7c10.3,0,18.7-8.4,18.7-18.7C57.2,8.4,48.8,0,38.5,0L38.5,0z"/>
</g>
</svg>
