<?xml version="1.0" encoding="utf-8"?>
<!-- Generator: Adobe Illustrator 24.1.1, SVG Export Plug-In . SVG Version: 6.00 Build 0)  -->
<svg version="1.1" id="Layer_1" xmlns="http://www.w3.org/2000/svg" xmlns:xlink="http://www.w3.org/1999/xlink" x="0px" y="0px"
	 viewBox="0 0 1850.7 2046" style="enable-background:new 0 0 1850.7 2046;" xml:space="preserve">
<style type="text/css">
	.st0{fill:#FFFFFF;}
</style>
<g>
	<path class="st0" d="M1184.1,388.9c1.7-1.9,3-3.3,4.2-4.7c49.4-59.6,110.6-102.1,184.5-125.5c49.5-15.6,100.3-20.9,152-14.4
		c57.3,7.3,110.3,26.5,158.1,58.9c63.4,43,109.8,100.3,139,171.2c20.4,49.6,29.4,101.5,28.8,155.1c-0.4,42.5-7.4,83.9-22,123.8
		c-24.6,67.1-66.9,120.6-125.2,161.7c-35.9,25.3-75.2,43.1-117,56.1c-46.8,14.6-95.1,19.6-143.7,22.3c-36.9,2-73.8,5-110.7,7.3
		c-31.1,2-62.2,3.7-93.3,5.6c-29.8,1.8-59.5,3.9-89.3,5.7c-22.6,1.4-45.2,2.8-67.9,4.2c-21.3,1.3-42.6,2.8-63.8,4.1
		c-33.4,2.1-66.9,4-100.3,6c-48.4,2.9-96.8,6.1-145.2,8.7c-34.1,1.9-68.2,4.3-102.3,4.3c-28.1,0-56-4.6-83.6-10.6
		c-42.4-9.2-82.8-23.7-121.3-43.6c-52.1-27-98.4-61.6-138.5-104.5c-50.7-54.2-89-116.1-113.7-186.2c-12.8-36.4-21.5-73.7-26.1-112.1
		c-5-41.2-5.5-82.4-1-123.7c3.8-35.5,11.4-70.3,22.4-104.3c28.9-89,79-164.4,148.8-226.4c52.3-46.4,111.9-80.7,178.6-102.3
		c29.2-9.5,58.8-17,89.3-21.1c42.8-5.8,85.7-6.2,128.6-1.2c58.5,6.7,114,23.6,166.4,50.2c52.6,26.7,99.1,61.7,139.4,105
		c48.3,51.9,84.6,111.1,108.1,178c5.7,16.1,10.1,32.7,15.2,49.1C1182.8,386.5,1183.3,387.3,1184.1,388.9z M1037.7,517.1
		c-2.4-52.2-9.7-87.2-26.7-123.1c-35.1-74.4-90.7-125.1-171.6-145.6c-38.3-9.7-76.7-9-114.6,1.3c-40.3,10.9-75.6,31.3-105.5,60.4
		c-58.6,56.8-88.2,126.9-92.6,207.8c-2.4,44.3,4.9,87.3,21.4,128.6c17.4,43.6,43.9,80.7,80.7,109.8c33.1,26.2,70.5,43,112.6,49
		c40.2,5.8,79.3,1.7,116.7-13.4c68-27.5,116.7-76.2,148.7-141.7C1028.4,606.2,1038.3,559.5,1037.7,517.1z M1709.7,618.1
		c-0.4-58.4-15.8-103.5-46.2-139.3c-39.5-46.5-88.7-67.8-150.2-54.9c-39.9,8.3-71.9,29.9-96.8,61.3
		c-39.8,50.3-54.1,107.6-42.8,170.8c7.9,44.1,28.2,81.5,62.6,110.7c26.3,22.3,56.6,35.1,91,36.3c32.8,1.2,63.4-7.5,91-25.3
		C1679.6,738.1,1706.5,679.8,1709.7,618.1z"/>
	<path class="st0" d="M866.1,1870.1c1.9-2.7,3.3-4.9,4.9-6.9c39.9-51.3,79.6-102.6,119.8-153.7c12.3-15.7,16.8-33.5,17-52.7
		c0.3-45.8,0.3-91.7,0.1-137.5c-0.1-29.6-12.3-54.2-33.1-74.7c-24-23.6-48.4-46.8-72.6-70.2c-55.3-53.3-110.6-106.6-165.9-159.9
		c-6.2-6-12.6-11.9-19-17.7c-2.1-1.9-2.6-3.7-1.6-6.5c11.6-32.8,32.6-56.6,66.7-66c14.9-4.1,30.8-5.4,46.3-6.9
		c36.3-3.6,72.7-6.6,109-9.8c21.7-1.9,43.5-3.7,65.2-5.6c33.7-3,67.3-6.2,101-9.2c28.5-2.6,57.1-5,85.6-7.5
		c28.9-2.5,57.8-5.1,86.6-7.6c28.9-2.5,57.7-5.2,86.6-7.5c20.9-1.6,41.9-3.2,62.8-3.8c34.4-1,68.6,1.3,102.8,4.9
		c30.6,3.2,61.4,5.9,92,9.1c29.5,3.1,59.3,4.7,88.3,10.2c33.9,6.4,59.8,25.2,70.4,59.8c3.3,10.7,4.4,22.3,4.7,33.5
		c0.7,24.3,0.2,48.7,0.2,73c0,13-7.3,20.9-20.1,23.2c-26.6,4.7-53.1,9.7-79.6,14.5c-29.2,5.3-58.3,10.5-87.5,15.8
		c-25.6,4.6-51.1,9.3-76.6,14c-26.4,4.8-52.7,9.6-79.1,14.5c-22.4,4.2-45,7.6-67.1,13.1c-25.5,6.4-42.1,23.9-51.7,48.1
		c-4.8,12-7.2,24.6-7.2,37.6c0,67,0,134,0.1,201c0,15.7,2.5,30.9,12,44.1c8.3,11.5,20,17.6,33.7,20.5c19.5,4.1,38.4-0.2,57.3-4
		c29.7-6.1,59.4-11.9,89-18.1c8.1-1.7,16.3-3.6,24-6.5c8.2-3.1,12.4-9.6,12.3-18.7c-0.2-15,0-30-0.1-45c0-10.6-3.8-13.3-14-11.1
		c-35.1,7.7-70.2,15.4-105.4,22.9c-13,2.7-21.7-4.8-21.7-18.1c0-48.5,0-97,0-145.5c0-16.4,6.7-25.3,22.7-28.5
		c25.3-5.1,50.7-9.7,76.1-14.4c25.9-4.8,51.7-9.5,77.6-14.3c28.6-5.3,57.3-10.6,85.9-16c28.6-5.3,57.3-10.6,85.9-15.9
		c7-1.3,14.1-2.8,21.1-4c7.5-1.3,11.4,1.6,12.2,9.2c0.2,1.8,0.2,3.7,0.2,5.5c0,102.2-0.1,204.3,0.1,306.5c0,21.1-4,41.1-15.4,59.1
		c-11,17.4-25.9,30.6-43.5,41.2c-20,12-41.8,18.5-64.5,23.1c-27.6,5.6-55,11.9-82.5,17.9c-29.1,6.3-58.2,12.7-87.3,19
		c-32.9,7.1-65.7,14.2-98.6,21.3c-32.4,7-64.8,13.9-97.1,20.9c-32.4,7-64.7,14.2-97.1,21.1c-24.9,5.3-49.7,11.3-74.9,14.8
		c-44.3,6.2-88.5,5.3-131.4-9.4c-31.5-10.8-62.5-22.7-93.8-34.2C887.6,1878,877.2,1874.2,866.1,1870.1z"/>
	<path class="st0" d="M0.2,1537.9c-0.6-58.7,0.7-117.3,4.4-175.9c2-31.2,4.3-62.5,8.3-93.6c4.1-31.7,15-61.1,38-84.6
		c16.9-17.3,37.6-27.6,61.5-31.7c23.3-4.1,46.4-2.8,69.7-0.2c22.3,2.5,44.8,4.4,67,7.4c32.3,4.4,64.6,9.4,96.8,14.5
		c26.8,4.3,53.6,8.7,80.2,13.8c33,6.2,66,13,98.9,19.9c18.2,3.8,36.5,7.6,54.3,12.9c29.9,9,55.2,26,77.9,47.1
		c70.8,65.7,141.7,131.4,212.6,197c12.7,11.8,25.4,23.6,38.2,35.3c13.5,12.4,20.1,27.9,20.2,46.2c0.1,31-0.3,62,0.1,93
		c0.2,17.7-6.5,32.2-17.5,45.5c-23.4,28.2-46.4,56.7-69.6,85.1c-56.5,69.3-113.1,138.6-169.6,207.9c-7.9,9.7-15.9,19.3-23.7,29
		c-16,20-37.5,30.2-62,35.4c-25.6,5.5-51.4,4.8-77,0.8c-50.9-8-100.5-21.4-150.1-35.3c-32.2-9-64.6-17.6-96.3-28.2
		c-41.1-13.8-81.7-29.3-122.5-44.2c-32.8-12-61.3-30.7-84.9-56.3c-22.2-24.1-36.2-52.5-40.9-85.1c-8.1-55.5-10.3-111.5-12.2-167.4
		C1.1,1596.9,0.8,1567.4,0.2,1537.9z M549.6,1629.8c-0.5,0-0.9,0-1.4-0.1c0-1.5,0-3,0-4.5c0.3-69.4-2.3-138.6-10.4-207.5
		c-1.6-13.5-6.4-25.8-15.8-36c-10.9-11.8-24.7-18.5-39.8-22.6c-28.6-7.7-57.1-15.6-86-22.2c-25.3-5.8-50.9-10.5-76.4-14.9
		c-21.5-3.7-43.1-7.2-64.7-9.3c-25.3-2.5-50.8-3.8-76.2-4.8c-15.4-0.6-25.7,7-30.6,21.6c-2.5,7.5-3.9,15.6-4.4,23.4
		c-2.5,40.1-5.6,80.1-6.5,120.2c-1.8,83.2,0.7,166.2,8.1,249.1c2.1,24.1,9.7,45.5,30,60c9.1,6.5,19.4,11.6,29.7,16.2
		c47.8,21,97.7,35.9,148.6,47.2c32.8,7.3,65.9,13.5,99,19.3c15,2.6,30.4,4,45.7,4c20,0,34.2-12.2,37.8-31.9
		c2.5-13.5,3.9-27.4,4.7-41.1C544,1740.5,546.7,1685.1,549.6,1629.8z"/>
</g>
</svg>
