<?xml version="1.0" encoding="utf-8"?>
<!-- Generator: Adobe Illustrator 24.1.1, SVG Export Plug-In . SVG Version: 6.00 Build 0)  -->
<svg version="1.1" id="Layer_1" xmlns="http://www.w3.org/2000/svg" xmlns:xlink="http://www.w3.org/1999/xlink" x="0px" y="0px"
	 viewBox="0 0 713.1 211.1" style="enable-background:new 0 0 713.1 211.1;" xml:space="preserve">
<style type="text/css">
	.st0{opacity:0.7;fill:#DDBAD6;}
	.st1{opacity:0.7;fill:#DDA2D2;}
	.st2{opacity:0.7;fill:#E05EC4;}
</style>
<g>
	<path class="st0" d="M0,24.2c0,0,95-15.7,138.6-10c75.3,10,97.1,78.3,222.9,65.6c81.2-8.2,107.7-41.8,172.9-68.6
		s151.9-4.1,178.7,53.3v146.6H0V24.2z"/>
	<path class="st1" d="M713.1,83.9c0,0-105.7-82.3-248.2-72.4c-88.1,6.1-145.5,81.6-295.7,85.4C19.1,100.8,0,60.2,0,60.2v150.9h713.1
		V83.9z"/>
	<path class="st2" d="M0,135.2c0,0,85.7-79.7,181.5-79.7c139.4,0,180.5,100.5,319.9,92.8s211.7-54,211.7-54v116.7H0V135.2z"/>
</g>
</svg>
