<?xml version="1.0" encoding="utf-8"?>
<!-- Generator: Adobe Illustrator 24.1.1, SVG Export Plug-In . SVG Version: 6.00 Build 0)  -->
<svg version="1.1" id="Layer_1" xmlns="http://www.w3.org/2000/svg" xmlns:xlink="http://www.w3.org/1999/xlink" x="0px" y="0px"
	 viewBox="0 0 438.8 116.2" style="enable-background:new 0 0 438.8 116.2;" xml:space="preserve">
<style type="text/css">
	.st0{fill:#E31E6F;}
	.st1{fill:#FFF0FF;}
	.st2{fill:#F5F0EF;}
	.st3{fill:#FFFFFF;}
</style>
<g>
	<g>
		<path class="st3" d="M61.7,43c-14.3-1-19.9,9-20.4,9.8C40.8,51.9,35.2,42,20.9,43C3.2,44.2-0.8,58,0.1,65.4
			c1.5,11.7,6.6,21.2,41.1,50.7v0.1c0,0,0,0,0,0c0,0,0,0,0,0v-0.1c34.5-29.5,39.6-38.9,41.1-50.7C83.4,58,79.4,44.2,61.7,43z"/>
		<path class="st3" d="M123.5,43c-0.7,0-1.3-0.1-1.9-0.1c-12.9,0-18,9.1-18.5,9.9c-0.4-0.8-5.6-9.9-18.5-9.9c-0.6,0-1.3,0-1.9,0.1
			c-0.7,0-1.4,0.1-2.1,0.2c0.7,0.6,1.3,1.2,1.9,1.8c0.1,0,0.2,0,0.3,0c0.6,0,1.2-0.1,1.8-0.1c11.6,0,16.2,7.9,16.7,8.8l1.8,3.3
			l1.8-3.3c0.5-0.9,5.1-8.8,16.7-8.8c0.6,0,1.2,0,1.8,0.1c6.6,0.4,11.6,2.7,15,6.8c3.6,4.4,4.4,10,3.9,13.4
			c-1.3,10.3-4.7,18.7-39.2,48.3c-11.3-9.7-19.3-17.2-24.9-23.1c-0.4,0.5-0.8,1-1.3,1.5c6,6.3,14.3,14.1,26.2,24.2v0.1c0,0,0,0,0,0
			c0,0,0,0,0,0v-0.1c34.5-29.5,39.6-38.9,41.1-50.7C145.2,58,141.2,44.2,123.5,43z"/>
		<circle class="st3" cx="103.1" cy="20.1" r="20.1"/>
		<path class="st3" d="M41.3,2c10,0,18.1,8.1,18.1,18.1s-8.1,18.1-18.1,18.1s-18.1-8.1-18.1-18.1S31.4,2,41.3,2 M41.3,0
			C30.2,0,21.2,9,21.2,20.1c0,11.1,9,20.1,20.1,20.1c11.1,0,20.1-9,20.1-20.1C61.4,9,52.4,0,41.3,0L41.3,0z"/>
	</g>
	<g>
		<g>
			<path class="st3" d="M195.1,28.4c0-0.4,0.3-0.6,0.7-0.6h0.9c0.4,0,0.6,0.2,0.6,0.6v27c0,0.4-0.3,0.6-0.7,0.6h-0.9
				c-0.3,0-0.5-0.1-0.6-0.3l-19.2-24.3v23.9c0,0.5-0.2,0.7-0.7,0.7h-0.8c-0.5,0-0.7-0.2-0.7-0.7V28.4c0-0.2,0-0.3,0-0.4
				c0-0.1,0.1-0.2,0.2-0.2c0.1,0,0.3-0.1,0.6-0.1c0.2,0,0.6,0,1,0c0.1,0,0.3,0.1,0.4,0.2c1.5,1.9,3.1,3.9,4.7,5.9s3.3,4.1,4.9,6.2
				s3.3,4.1,4.9,6.2c1.6,2,3.2,4,4.7,5.9V28.4z"/>
			<path class="st3" d="M202.2,44c0-1.1,0.1-2.2,0.4-3.3s0.7-2.1,1.3-3c0.5-0.9,1.2-1.8,2-2.5s1.6-1.4,2.5-2c0.9-0.5,1.9-1,3-1.3
				s2.2-0.4,3.3-0.4s2.2,0.1,3.3,0.4c1.1,0.3,2,0.7,3,1.3c0.9,0.5,1.8,1.2,2.5,2c0.8,0.8,1.4,1.6,2,2.5c0.5,0.9,1,1.9,1.3,3
				s0.4,2.2,0.4,3.3c0,1.1-0.1,2.2-0.4,3.3s-0.7,2.1-1.3,3s-1.2,1.8-2,2.5c-0.8,0.8-1.6,1.4-2.5,2s-1.9,1-3,1.3
				c-1.1,0.3-2.2,0.4-3.3,0.4s-2.2-0.1-3.3-0.4s-2.1-0.7-3-1.3c-0.9-0.5-1.8-1.2-2.5-2s-1.4-1.6-2-2.5s-1-1.9-1.3-3
				S202.2,45.1,202.2,44z M204.5,44c0,0.9,0.1,1.8,0.4,2.7s0.6,1.7,1,2.5c0.4,0.8,1,1.5,1.6,2.1s1.3,1.2,2.1,1.6
				c0.8,0.5,1.6,0.8,2.4,1.1c0.9,0.3,1.8,0.4,2.7,0.4c1.4,0,2.7-0.3,4-0.8c1.2-0.5,2.3-1.3,3.3-2.2s1.7-2,2.2-3.3
				c0.5-1.2,0.8-2.6,0.8-4c0-1.4-0.3-2.7-0.8-4s-1.3-2.4-2.2-3.3c-0.9-0.9-2-1.7-3.2-2.3c-1.2-0.6-2.6-0.8-4-0.8s-2.7,0.3-4,0.8
				c-1.2,0.6-2.3,1.3-3.3,2.3c-0.9,1-1.7,2.1-2.2,3.3C204.7,41.2,204.5,42.5,204.5,44z"/>
			<path class="st3" d="M230.4,50.9c0-0.1,0-0.1-0.1-0.2s0-0.1,0-0.2c0-0.2,0-0.3,0.1-0.4c0.1-0.1,0.2-0.1,0.3-0.2l0.7-0.3
				c0,0,0.1,0,0.1,0c0.1,0,0.1,0,0.1,0c0.1,0,0.2,0.1,0.3,0.2c0.1,0.1,0.1,0.3,0.2,0.4c0.1,0.2,0.1,0.3,0.2,0.5
				c0.1,0.2,0.1,0.3,0.2,0.5c0.2,0.5,0.6,1,1,1.4s1,0.7,1.5,1c0.5,0.2,1.1,0.4,1.6,0.6c0.6,0.1,1.1,0.2,1.5,0.2
				c0.6,0,1.2-0.1,1.9-0.3c0.7-0.2,1.4-0.4,2-0.8s1.2-0.8,1.6-1.4c0.4-0.6,0.6-1.3,0.6-2.2c0-0.8-0.2-1.4-0.6-2
				c-0.4-0.6-0.9-1-1.5-1.4c-0.6-0.4-1.3-0.7-2-1c-0.7-0.3-1.5-0.5-2.2-0.6c-0.9-0.2-1.8-0.5-2.7-0.9s-1.6-0.8-2.3-1.4
				s-1.2-1.2-1.6-1.9c-0.4-0.7-0.6-1.5-0.6-2.4c0-1,0.2-1.9,0.5-2.7s0.9-1.5,1.5-2.1c0.7-0.6,1.5-1,2.4-1.3c0.9-0.3,2-0.5,3.1-0.5
				c0.9,0,1.8,0.1,2.5,0.4c0.8,0.2,1.5,0.6,2.1,1s1.2,1,1.6,1.6c0.5,0.6,0.8,1.3,1.1,2l0,0c0.1,0.1,0.1,0.2,0.1,0.3
				c0,0.1-0.1,0.2-0.2,0.3c-0.1,0.1-0.2,0.2-0.4,0.3c-0.1,0.1-0.3,0.2-0.4,0.2c-0.1,0.1-0.2,0.1-0.3,0.1c-0.1,0-0.2,0-0.3-0.1
				c-0.1-0.1-0.1-0.1-0.2-0.2c-0.1-0.1-0.1-0.2-0.2-0.3c-0.1-0.1-0.1-0.3-0.2-0.4c-0.5-0.8-1.2-1.5-2.1-2.1c-0.9-0.6-2-0.8-3.2-0.8
				c-0.7,0-1.3,0.1-2,0.3c-0.6,0.2-1.2,0.4-1.7,0.8c-0.5,0.4-0.9,0.8-1.2,1.4c-0.3,0.6-0.4,1.2-0.4,1.9c0,0.6,0.2,1.2,0.6,1.7
				c0.4,0.5,0.9,0.9,1.4,1.3c0.6,0.4,1.2,0.7,1.8,0.9c0.6,0.2,1.2,0.4,1.8,0.5c0.1,0,0.2,0,0.2,0c0,0,0,0,0.1,0
				c1.2,0.3,2.2,0.6,3.2,1c1,0.4,1.8,0.9,2.4,1.5s1.2,1.3,1.6,2c0.4,0.8,0.6,1.6,0.6,2.6c0,1.1-0.2,2.1-0.7,2.9
				c-0.5,0.9-1.1,1.6-1.9,2.2c-0.8,0.6-1.7,1-2.7,1.3s-2.1,0.5-3.2,0.5c-0.9,0-1.8-0.1-2.7-0.4c-0.9-0.2-1.6-0.6-2.3-1.1
				c-0.7-0.5-1.3-1-1.8-1.7S230.6,51.8,230.4,50.9z"/>
			<path class="st3" d="M250.4,50.9c0-0.1,0-0.1-0.1-0.2s0-0.1,0-0.2c0-0.2,0-0.3,0.1-0.4c0.1-0.1,0.2-0.1,0.3-0.2l0.7-0.3
				c0,0,0.1,0,0.1,0c0.1,0,0.1,0,0.1,0c0.1,0,0.2,0.1,0.3,0.2c0.1,0.1,0.1,0.3,0.2,0.4c0.1,0.2,0.1,0.3,0.2,0.5
				c0.1,0.2,0.1,0.3,0.2,0.5c0.2,0.5,0.6,1,1,1.4s1,0.7,1.5,1c0.5,0.2,1.1,0.4,1.6,0.6c0.6,0.1,1.1,0.2,1.5,0.2
				c0.6,0,1.2-0.1,1.9-0.3c0.7-0.2,1.4-0.4,2-0.8s1.2-0.8,1.6-1.4c0.4-0.6,0.6-1.3,0.6-2.2c0-0.8-0.2-1.4-0.6-2
				c-0.4-0.6-0.9-1-1.5-1.4c-0.6-0.4-1.3-0.7-2-1c-0.7-0.3-1.5-0.5-2.2-0.6c-0.9-0.2-1.8-0.5-2.7-0.9c-0.9-0.4-1.6-0.8-2.3-1.4
				s-1.2-1.2-1.6-1.9c-0.4-0.7-0.6-1.5-0.6-2.4c0-1,0.2-1.9,0.5-2.7s0.9-1.5,1.5-2.1c0.7-0.6,1.5-1,2.4-1.3c0.9-0.3,2-0.5,3.1-0.5
				c0.9,0,1.8,0.1,2.5,0.4c0.8,0.2,1.5,0.6,2.1,1s1.2,1,1.6,1.6c0.5,0.6,0.8,1.3,1.1,2l0,0c0.1,0.1,0.1,0.2,0.1,0.3
				c0,0.1-0.1,0.2-0.2,0.3c-0.1,0.1-0.2,0.2-0.4,0.3c-0.1,0.1-0.3,0.2-0.4,0.2c-0.1,0.1-0.2,0.1-0.3,0.1c-0.1,0-0.2,0-0.3-0.1
				c-0.1-0.1-0.1-0.1-0.2-0.2c-0.1-0.1-0.1-0.2-0.2-0.3c-0.1-0.1-0.1-0.3-0.2-0.4c-0.5-0.8-1.2-1.5-2.1-2.1c-0.9-0.6-2-0.8-3.2-0.8
				c-0.7,0-1.3,0.1-2,0.3c-0.6,0.2-1.2,0.4-1.7,0.8c-0.5,0.4-0.9,0.8-1.2,1.4c-0.3,0.6-0.4,1.2-0.4,1.9c0,0.6,0.2,1.2,0.6,1.7
				c0.4,0.5,0.9,0.9,1.4,1.3c0.6,0.4,1.2,0.7,1.8,0.9c0.6,0.2,1.2,0.4,1.8,0.5c0.1,0,0.2,0,0.2,0c0,0,0,0,0.1,0
				c1.2,0.3,2.2,0.6,3.2,1c1,0.4,1.8,0.9,2.4,1.5s1.2,1.3,1.6,2c0.4,0.8,0.6,1.6,0.6,2.6c0,1.1-0.2,2.1-0.7,2.9
				c-0.5,0.9-1.1,1.6-1.9,2.2c-0.8,0.6-1.7,1-2.7,1.3s-2.1,0.5-3.2,0.5c-0.9,0-1.8-0.1-2.7-0.4c-0.9-0.2-1.6-0.6-2.3-1.1
				c-0.7-0.5-1.3-1-1.8-1.7S250.6,51.8,250.4,50.9z"/>
			<path class="st3" d="M293.6,52.2l-0.1-1.4c-0.5,0.9-1.1,1.7-1.8,2.4c-0.7,0.7-1.5,1.3-2.4,1.8s-1.8,0.9-2.8,1.1
				c-1,0.3-2,0.4-3.1,0.4c-1.1,0-2.2-0.1-3.3-0.4s-2.1-0.7-3-1.3s-1.8-1.2-2.5-2c-0.8-0.8-1.4-1.6-2-2.5c-0.5-0.9-1-1.9-1.3-3
				s-0.4-2.2-0.4-3.3c0-1.1,0.1-2.2,0.4-3.3c0.3-1.1,0.7-2.1,1.3-3c0.6-0.9,1.2-1.8,2-2.5s1.6-1.4,2.5-2c0.9-0.6,1.9-1,3-1.3
				s2.2-0.4,3.3-0.4c1,0,2.1,0.1,3.1,0.4c1,0.3,1.9,0.6,2.8,1.2s1.7,1.1,2.4,1.8c0.7,0.7,1.4,1.5,1.9,2.4v-1.4v-3.3
				c0-0.4,0.2-0.6,0.6-0.6h1c0.4,0,0.6,0.2,0.6,0.6v22.9c0,0.2-0.1,0.4-0.2,0.5s-0.3,0.1-0.5,0.1h-0.8c-0.5,0-0.7-0.2-0.7-0.7V52.2z
				 M293.7,43.9c0-1.4-0.3-2.7-0.8-3.9c-0.6-1.2-1.3-2.3-2.2-3.3c-0.9-0.9-2-1.7-3.3-2.3c-1.2-0.6-2.5-0.8-3.9-0.9h-0.1
				c-1.4,0-2.6,0.3-3.9,0.8c-1.2,0.6-2.3,1.3-3.2,2.3c-0.9,0.9-1.7,2-2.2,3.3c-0.5,1.2-0.8,2.6-0.8,3.9c0,1.4,0.3,2.7,0.8,4
				c0.5,1.3,1.2,2.4,2.2,3.3c0.9,1,2,1.7,3.2,2.3s2.5,0.8,3.9,0.8c1.4,0,2.7-0.3,4-0.8c1.3-0.6,2.4-1.3,3.3-2.2
				c0.9-0.9,1.7-2,2.2-3.3C293.4,46.7,293.7,45.4,293.7,43.9z"/>
			<path class="st3" d="M300.1,50.9c0-0.1,0-0.1-0.1-0.2s0-0.1,0-0.2c0-0.2,0-0.3,0.1-0.4c0.1-0.1,0.2-0.1,0.3-0.2l0.7-0.3
				c0,0,0.1,0,0.1,0c0.1,0,0.1,0,0.1,0c0.1,0,0.2,0.1,0.3,0.2c0.1,0.1,0.1,0.3,0.2,0.4c0.1,0.2,0.1,0.3,0.2,0.5
				c0.1,0.2,0.1,0.3,0.2,0.5c0.2,0.5,0.6,1,1,1.4s1,0.7,1.5,1c0.5,0.2,1.1,0.4,1.6,0.6c0.6,0.1,1.1,0.2,1.5,0.2
				c0.6,0,1.2-0.1,1.9-0.3c0.7-0.2,1.4-0.4,2-0.8s1.2-0.8,1.6-1.4c0.4-0.6,0.6-1.3,0.6-2.2c0-0.8-0.2-1.4-0.6-2
				c-0.4-0.6-0.9-1-1.5-1.4c-0.6-0.4-1.3-0.7-2-1c-0.7-0.3-1.5-0.5-2.2-0.6c-0.9-0.2-1.8-0.5-2.7-0.9s-1.6-0.8-2.3-1.4
				s-1.2-1.2-1.6-1.9c-0.4-0.7-0.6-1.5-0.6-2.4c0-1,0.2-1.9,0.5-2.7s0.9-1.5,1.5-2.1c0.7-0.6,1.5-1,2.4-1.3c0.9-0.3,2-0.5,3.1-0.5
				c0.9,0,1.8,0.1,2.5,0.4c0.8,0.2,1.5,0.6,2.1,1s1.2,1,1.6,1.6c0.5,0.6,0.8,1.3,1.1,2l0,0c0.1,0.1,0.1,0.2,0.1,0.3
				c0,0.1-0.1,0.2-0.2,0.3c-0.1,0.1-0.2,0.2-0.4,0.3c-0.1,0.1-0.3,0.2-0.4,0.2c-0.1,0.1-0.2,0.1-0.3,0.1c-0.1,0-0.2,0-0.3-0.1
				c-0.1-0.1-0.1-0.1-0.2-0.2c-0.1-0.1-0.1-0.2-0.2-0.3c-0.1-0.1-0.1-0.3-0.2-0.4c-0.5-0.8-1.2-1.5-2.1-2.1c-0.9-0.6-2-0.8-3.2-0.8
				c-0.7,0-1.3,0.1-2,0.3c-0.6,0.2-1.2,0.4-1.7,0.8c-0.5,0.4-0.9,0.8-1.2,1.4c-0.3,0.6-0.4,1.2-0.4,1.9c0,0.6,0.2,1.2,0.6,1.7
				c0.4,0.5,0.9,0.9,1.4,1.3c0.6,0.4,1.2,0.7,1.8,0.9c0.6,0.2,1.2,0.4,1.8,0.5c0.1,0,0.2,0,0.2,0c0,0,0,0,0.1,0
				c1.2,0.3,2.2,0.6,3.2,1c1,0.4,1.8,0.9,2.4,1.5s1.2,1.3,1.6,2c0.4,0.8,0.6,1.6,0.6,2.6c0,1.1-0.2,2.1-0.7,2.9
				c-0.5,0.9-1.1,1.6-1.9,2.2c-0.8,0.6-1.7,1-2.7,1.3s-2.1,0.5-3.2,0.5c-0.9,0-1.8-0.1-2.7-0.4c-0.9-0.2-1.6-0.6-2.3-1.1
				c-0.7-0.5-1.3-1-1.8-1.7S300.3,51.8,300.1,50.9z"/>
		</g>
		<g>
			<path class="st3" d="M190.9,85.3c0.2,0,0.4,0.1,0.5,0.2s0.2,0.3,0.2,0.5v1c0,0.2-0.1,0.4-0.2,0.5c-0.1,0.1-0.3,0.2-0.5,0.2h-16.5
				c-0.5,0-0.7-0.2-0.7-0.7V60.1c0-0.2,0.1-0.4,0.2-0.5c0.1-0.1,0.3-0.2,0.5-0.2h1c0.2,0,0.4,0.1,0.5,0.2c0.1,0.1,0.2,0.3,0.2,0.5
				v25.2H190.9z"/>
			<path class="st3" d="M196.7,76.5c0,0.2,0.1,0.5,0.1,0.9c0,0.4,0.1,0.7,0.2,1c0.3,1.1,0.8,2.2,1.4,3.1c0.6,0.9,1.3,1.7,2.2,2.4
				c0.8,0.7,1.8,1.2,2.8,1.6c1,0.4,2.2,0.6,3.3,0.6c0.7,0,1.3-0.1,1.9-0.2c0.6-0.1,1.1-0.2,1.6-0.4c0.5-0.2,1-0.4,1.4-0.7
				s0.9-0.5,1.3-0.8c0.1-0.1,0.3-0.2,0.4-0.3s0.3-0.2,0.4-0.3c0.1-0.1,0.2-0.2,0.4-0.2c0.1-0.1,0.2-0.1,0.3-0.1
				c0.1,0,0.2,0.1,0.3,0.2c0.2,0.3,0.4,0.5,0.5,0.7c0.1,0.2,0.1,0.3,0.1,0.4c0,0.1,0,0.1-0.1,0.2c0.1,0.1,0.1,0.1,0.1,0.2
				c-0.1,0.2-0.3,0.4-0.5,0.6c-0.2,0.2-0.4,0.4-0.7,0.6c-1,0.7-2.1,1.3-3.3,1.7c-1.2,0.4-2.5,0.6-3.9,0.6c-1.7,0-3.3-0.3-4.8-1
				c-1.5-0.7-2.8-1.5-4-2.7c-1.1-1.1-2-2.5-2.7-4c-0.7-1.5-1-3.1-1-4.8c0-1.2,0.1-2.3,0.4-3.3c0.3-1.1,0.7-2.1,1.2-3
				c0.5-0.9,1.2-1.8,1.9-2.5c0.8-0.8,1.6-1.4,2.5-2s1.9-1,3-1.3s2.2-0.4,3.4-0.4c1.1,0,2.2,0.1,3.2,0.4s2,0.7,2.9,1.2
				s1.7,1.1,2.5,1.9c0.8,0.7,1.4,1.6,1.9,2.5c0.5,0.9,1,1.9,1.3,3.1c0.3,1.1,0.5,2.3,0.5,3.6v0c0,0,0,0,0,0c0,0,0,0,0,0.1
				c0,0.4-0.2,0.6-0.6,0.6H196.7z M204.2,65.8c-1,0.3-1.9,0.7-2.7,1.2c-0.8,0.5-1.6,1.2-2.2,1.9s-1.2,1.6-1.6,2.5
				c-0.4,0.9-0.7,1.9-0.9,2.9h20.3c-0.2-1.3-0.5-2.4-1.1-3.5c-0.6-1.1-1.4-2-2.3-2.8c-0.9-0.8-1.9-1.4-3.1-1.9
				c-1.2-0.4-2.4-0.7-3.6-0.7c-0.4,0-0.8,0-1.3,0.1C205.3,65.5,204.8,65.6,204.2,65.8z"/>
			<path class="st3" d="M233.7,65.5c-0.9,0-1.7,0.2-2.5,0.5c-0.8,0.3-1.5,0.7-2.2,1.3c-0.6,0.6-1.2,1.2-1.6,2
				c-0.4,0.8-0.6,1.6-0.7,2.6v9.7c0,0,0,0.1,0,0.1c0,0,0,0.1,0,0.1v5.3c0,0.4-0.2,0.6-0.6,0.6h-1c-0.4,0-0.6-0.2-0.6-0.6V64.3
				c0-0.2,0.1-0.4,0.2-0.5c0.1-0.1,0.3-0.2,0.5-0.2h0.8c0.2,0,0.4,0.1,0.5,0.2c0.1,0.1,0.2,0.3,0.2,0.5l0,2.9
				c0.4-0.6,0.9-1.2,1.4-1.6c0.5-0.5,1-0.9,1.6-1.2c0.6-0.3,1.2-0.6,1.9-0.8c0.7-0.2,1.4-0.3,2.2-0.3c1.9,0,3.5,0.4,4.9,1.3
				c1.3,0.9,2.4,2.1,3.1,3.7c0.4-0.8,0.8-1.6,1.4-2.2c0.6-0.6,1.2-1.2,1.9-1.6c0.7-0.4,1.5-0.7,2.3-0.9s1.6-0.3,2.5-0.3
				c1.2,0,2.3,0.2,3.4,0.6c1,0.4,1.9,1,2.7,1.7c0.8,0.7,1.4,1.5,1.9,2.5c0.5,1,0.8,2,1,3.1c0.1,0.4,0.1,0.9,0.1,1.3
				c0,0.4,0,0.9,0,1.3v13c0,0.3-0.1,0.5-0.2,0.6c-0.1,0.1-0.3,0.2-0.5,0.2h-0.7c-0.3,0-0.5-0.1-0.6-0.2c-0.1-0.1-0.1-0.3-0.1-0.6
				V72.6c0-0.9-0.2-1.8-0.5-2.6c-0.3-0.9-0.8-1.6-1.4-2.3c-0.6-0.7-1.3-1.2-2.1-1.6c-0.8-0.4-1.8-0.6-2.9-0.6
				c-0.9,0-1.7,0.1-2.4,0.4c-0.8,0.3-1.4,0.7-2,1.2c-0.6,0.5-1.1,1.1-1.5,1.8c-0.4,0.7-0.7,1.4-0.8,2.2c-0.2,0.9-0.2,1.8-0.2,2.8v13
				c0,0.3-0.1,0.5-0.2,0.6s-0.3,0.2-0.6,0.2h-0.7c-0.3,0-0.5-0.1-0.6-0.2c-0.1-0.1-0.2-0.3-0.2-0.6V73.8c0-0.4,0-0.8,0-1.2
				c0-0.4-0.1-0.8-0.1-1.3c-0.1-0.8-0.4-1.5-0.7-2.2c-0.4-0.7-0.8-1.3-1.4-1.8c-0.6-0.5-1.3-0.9-2-1.3S234.6,65.5,233.7,65.5z"/>
			<path class="st3" d="M264.4,56.9c0-0.3,0.2-0.5,0.5-0.5l1.4,0c0.1,0,0.2,0,0.2,0.1c0.1,0.1,0.1,0.1,0.1,0.2v12.2
				c0.3-0.5,0.6-0.9,0.9-1.2s0.6-0.7,0.9-1.1c0.5-0.5,1.1-1,1.8-1.4c0.6-0.4,1.3-0.8,2-1.1c0.7-0.3,1.4-0.5,2.2-0.7
				c0.8-0.2,1.5-0.2,2.3-0.2c1.1,0,2.2,0.1,3.3,0.4s2.1,0.7,3,1.3c0.9,0.5,1.8,1.2,2.5,2c0.8,0.8,1.4,1.6,2,2.5c0.5,0.9,1,1.9,1.3,3
				c0.3,1.1,0.4,2.2,0.4,3.3c0,1.1-0.1,2.2-0.4,3.3c-0.3,1.1-0.7,2.1-1.3,3c-0.5,0.9-1.2,1.8-2,2.5c-0.8,0.8-1.6,1.4-2.5,2
				c-0.9,0.5-1.9,1-3,1.3s-2.2,0.4-3.3,0.4c-1.6,0-3.1-0.3-4.5-0.9c-1.4-0.6-2.7-1.4-3.8-2.5c-0.3-0.3-0.6-0.7-0.9-1.1
				c-0.3-0.4-0.6-0.9-0.8-1.3l-0.1,1.4v3.2c0,0.4-0.2,0.6-0.6,0.6h-1c-0.4,0-0.6-0.2-0.6-0.6V56.9z M286.9,75.7c0-1.4-0.3-2.7-0.8-4
				s-1.3-2.4-2.2-3.3c-0.9-1-2-1.7-3.2-2.3c-1.2-0.6-2.6-0.8-4-0.8c-1.4,0-2.7,0.3-4,0.8c-1.2,0.6-2.3,1.3-3.3,2.3
				c-0.9,1-1.7,2.1-2.2,3.3c-0.5,1.3-0.8,2.6-0.8,4c0,1.4,0.3,2.8,0.8,4c0.5,1.3,1.3,2.3,2.2,3.3c0.9,0.9,2,1.7,3.3,2.2
				c1.3,0.5,2.6,0.8,4,0.8c1.4,0,2.7-0.3,3.9-0.8s2.3-1.3,3.2-2.3c0.9-0.9,1.6-2,2.2-3.3C286.6,78.4,286.9,77.1,286.9,75.7z"/>
			<path class="st3" d="M309.2,67.6c-0.1,0.1-0.1,0.1-0.2,0.1c-0.1,0-0.2,0-0.3-0.1c-0.1-0.1-0.3-0.1-0.5-0.3
				c-0.3-0.2-0.6-0.4-0.9-0.6c-0.4-0.2-0.7-0.4-1.1-0.6c-0.4-0.2-0.8-0.3-1.2-0.4c-0.4-0.1-0.8-0.2-1.2-0.2c-1,0-1.9,0.2-2.8,0.5
				c-0.9,0.3-1.6,0.8-2.3,1.5c-0.6,0.6-1.2,1.4-1.5,2.3s-0.6,1.9-0.6,3v14.2c0,0.4-0.2,0.6-0.6,0.6h-1c-0.4,0-0.6-0.2-0.6-0.6V64.3
				c0-0.3,0.2-0.5,0.5-0.5c0,0,0.1,0,0.1,0c0,0,0.1,0,0.1,0h0.8c0.2,0,0.4,0.1,0.5,0.2c0.1,0.1,0.2,0.3,0.2,0.5v3.1
				c0.3-0.5,0.6-1,1-1.5c0.4-0.5,0.9-0.9,1.5-1.3s1.2-0.7,2-0.9c0.7-0.2,1.5-0.4,2.3-0.4c0.7,0,1.3,0,1.8,0.1
				c0.6,0.1,1.1,0.2,1.6,0.4c0.5,0.2,1,0.4,1.5,0.7c0.5,0.3,0.9,0.6,1.4,1c0.1,0.1,0.2,0.2,0.3,0.3s0.2,0.2,0.2,0.4
				c0,0.1-0.1,0.3-0.3,0.5S309.5,67.4,309.2,67.6z"/>
			<path class="st3" d="M336.2,83.9l-0.1-1.4c-0.5,0.9-1.1,1.7-1.8,2.4c-0.7,0.7-1.5,1.3-2.4,1.8s-1.8,0.9-2.8,1.1
				c-1,0.3-2,0.4-3.1,0.4c-1.1,0-2.2-0.1-3.3-0.4s-2.1-0.7-3-1.3s-1.8-1.2-2.5-2c-0.8-0.8-1.4-1.6-2-2.5c-0.5-0.9-1-1.9-1.3-3
				s-0.4-2.2-0.4-3.3c0-1.1,0.1-2.2,0.4-3.3s0.7-2.1,1.3-3c0.6-0.9,1.2-1.8,2-2.5s1.6-1.4,2.5-2c0.9-0.6,1.9-1,3-1.3
				s2.2-0.4,3.3-0.4c1,0,2.1,0.1,3.1,0.4c1,0.3,1.9,0.7,2.8,1.2c0.9,0.5,1.7,1.1,2.4,1.8c0.7,0.7,1.4,1.5,1.9,2.4v-1.4v-3.3
				c0-0.4,0.2-0.6,0.6-0.6h1c0.4,0,0.6,0.2,0.6,0.6v22.9c0,0.2-0.1,0.4-0.2,0.5s-0.3,0.1-0.5,0.1h-0.8c-0.5,0-0.7-0.2-0.7-0.7V83.9z
				 M336.3,75.7c0-1.4-0.3-2.7-0.8-3.9c-0.6-1.2-1.3-2.3-2.2-3.3c-0.9-0.9-2-1.7-3.3-2.3c-1.2-0.6-2.5-0.8-3.9-0.9H326
				c-1.4,0-2.6,0.3-3.9,0.8c-1.2,0.6-2.3,1.3-3.2,2.3c-0.9,0.9-1.7,2-2.2,3.3s-0.8,2.6-0.8,3.9s0.3,2.7,0.8,4
				c0.5,1.3,1.2,2.4,2.2,3.3c0.9,1,2,1.7,3.2,2.3s2.5,0.8,3.9,0.8c1.4,0,2.7-0.3,4-0.8c1.3-0.6,2.4-1.3,3.3-2.2
				c0.9-0.9,1.7-2,2.2-3.3C336,78.4,336.3,77.1,336.3,75.7z"/>
			<path class="st3" d="M344.5,64.4c0-0.2,0.1-0.4,0.2-0.5c0.1-0.1,0.3-0.2,0.5-0.2h0.8c0.2,0,0.4,0.1,0.5,0.2
				c0.1,0.1,0.2,0.3,0.2,0.5v2.8c0.5-0.8,1.2-1.5,1.8-2s1.4-0.9,2.1-1.2c0.7-0.3,1.4-0.5,2.1-0.6c0.7-0.1,1.4-0.2,1.9-0.2
				c1.5,0,2.8,0.3,4,0.8c1.2,0.5,2.2,1.3,3.1,2.2c0.8,0.9,1.5,2,2,3.2c0.5,1.2,0.7,2.5,0.7,3.9v13.6c0,0.3-0.1,0.5-0.2,0.6
				c-0.1,0.1-0.3,0.2-0.5,0.2h-0.7c-0.3,0-0.5-0.1-0.6-0.2c-0.1-0.1-0.2-0.3-0.2-0.6V73.2c0-1-0.2-2-0.6-2.9s-0.9-1.8-1.5-2.5
				s-1.4-1.3-2.4-1.8s-2-0.7-3.2-0.7c-1,0-1.9,0.2-2.9,0.5c-0.9,0.4-1.8,0.9-2.5,1.5c-0.7,0.7-1.3,1.4-1.8,2.3
				c-0.5,0.9-0.7,1.9-0.8,3v14.3c0,0.4-0.2,0.6-0.6,0.6h-1c-0.4,0-0.6-0.2-0.6-0.6v-5.3c0,0,0-0.1,0-0.2V64.4z"/>
			<path class="st3" d="M388.4,68C388.4,68.1,388.4,68.1,388.4,68c-0.1,0.1-0.2,0.2-0.2,0.2c-0.1,0-0.2-0.1-0.4-0.2
				c-0.2-0.2-0.4-0.4-0.7-0.7c-0.3-0.3-0.8-0.6-1.3-0.9c-0.6-0.3-1.2-0.6-2-0.8c-0.8-0.2-1.7-0.3-2.8-0.3c-1.3,0-2.6,0.3-3.9,0.8
				s-2.3,1.3-3.3,2.2c-0.9,0.9-1.7,2-2.2,3.3c-0.6,1.3-0.8,2.6-0.8,4s0.3,2.7,0.8,4c0.5,1.3,1.3,2.4,2.2,3.3c0.9,1,2,1.7,3.2,2.3
				c1.2,0.6,2.5,0.8,3.9,0.8c0.7,0,1.3-0.1,1.9-0.2c0.6-0.1,1.1-0.2,1.6-0.4c0.5-0.2,1-0.4,1.4-0.7c0.4-0.3,0.9-0.5,1.3-0.8
				c0.1-0.1,0.2-0.1,0.3-0.3c0.1-0.1,0.3-0.2,0.4-0.3c0.1-0.1,0.3-0.2,0.4-0.2c0.1-0.1,0.2-0.1,0.3-0.1c0.1,0,0.2,0.1,0.4,0.2
				c0.2,0.3,0.4,0.5,0.5,0.7s0.1,0.3,0.1,0.4c0,0.1,0,0.1-0.1,0.2c0.1,0.1,0.1,0.1,0.1,0.2c-0.3,0.4-0.7,0.8-1.2,1.1
				c-1,0.7-2.1,1.3-3.3,1.7c-1.2,0.4-2.5,0.6-3.9,0.6c-1.1,0-2.2-0.1-3.3-0.4s-2.1-0.7-3-1.3c-0.9-0.5-1.8-1.2-2.5-2
				c-0.8-0.8-1.4-1.6-2-2.5c-0.6-0.9-1-1.9-1.3-3c-0.3-1.1-0.5-2.2-0.5-3.3c0-1.1,0.2-2.2,0.5-3.3c0.3-1.1,0.7-2.1,1.3-3
				c0.6-0.9,1.2-1.8,2-2.5c0.8-0.8,1.6-1.4,2.5-2s1.9-1,3-1.3s2.2-0.4,3.3-0.4c0.8,0,1.5,0.1,2.2,0.2c0.7,0.1,1.4,0.3,2.1,0.6
				c0.7,0.3,1.3,0.6,1.9,0.9c0.6,0.3,1.1,0.7,1.6,1.1v0l0,0.1c0.1,0.1,0.2,0.2,0.3,0.3c0.1,0.1,0.1,0.2,0.1,0.3
				c0,0.1-0.1,0.3-0.2,0.5L388.4,68z M379.6,86.7h1.8c0,0.1,0,0.2,0,0.3c0,0.2,0,0.3,0,0.5c0,0.2,0,0.3,0,0.5c0,0.2,0,0.3,0,0.3
				c0,0.2,0,0.4,0,0.6c0,0.2,0,0.3,0.1,0.4c0,0.1,0.1,0.2,0.2,0.2s0.2,0.1,0.3,0.1c0.4,0.1,0.7,0.3,1,0.5c0.3,0.2,0.6,0.4,0.9,0.7
				c0.3,0.3,0.5,0.6,0.6,1c0.1,0.4,0.2,0.8,0.2,1.3c0,0.7-0.3,1.4-0.9,1.9c-0.5,0.5-1.3,1-2.3,1.5c-0.2,0.1-0.3,0.1-0.5,0.2
				s-0.3,0.1-0.5,0.1c-0.1,0-0.2,0-0.3-0.1s-0.2-0.2-0.3-0.3s-0.1-0.2-0.2-0.4c0-0.1-0.1-0.3-0.1-0.4c0-0.1,0-0.3,0.1-0.3
				c0.1-0.1,0.2-0.2,0.4-0.2c0.3-0.1,0.6-0.2,0.9-0.3c0.3-0.1,0.6-0.3,0.8-0.5c0.2-0.2,0.5-0.4,0.6-0.6c0.2-0.2,0.2-0.5,0.2-0.7
				c0-0.3-0.1-0.5-0.2-0.7c-0.1-0.2-0.2-0.4-0.4-0.6c-0.2-0.2-0.4-0.3-0.6-0.4c-0.2-0.1-0.5-0.2-0.7-0.3c-0.4-0.1-0.7-0.3-0.9-0.6
				c-0.2-0.3-0.3-0.7-0.3-1V86.7z"/>
			<path class="st3" d="M415.9,83.9l-0.1-1.4c-0.5,0.9-1.1,1.7-1.8,2.4c-0.7,0.7-1.5,1.3-2.4,1.8s-1.8,0.9-2.8,1.1
				c-1,0.3-2,0.4-3.1,0.4c-1.1,0-2.2-0.1-3.3-0.4s-2.1-0.7-3-1.3s-1.8-1.2-2.5-2c-0.8-0.8-1.4-1.6-2-2.5c-0.5-0.9-1-1.9-1.3-3
				s-0.4-2.2-0.4-3.3c0-1.1,0.1-2.2,0.4-3.3s0.7-2.1,1.3-3c0.6-0.9,1.2-1.8,2-2.5s1.6-1.4,2.5-2c0.9-0.6,1.9-1,3-1.3
				s2.2-0.4,3.3-0.4c1,0,2.1,0.1,3.1,0.4c1,0.3,1.9,0.7,2.8,1.2c0.9,0.5,1.7,1.1,2.4,1.8c0.7,0.7,1.4,1.5,1.9,2.4v-1.4v-3.3
				c0-0.4,0.2-0.6,0.6-0.6h1c0.4,0,0.6,0.2,0.6,0.6v22.9c0,0.2-0.1,0.4-0.2,0.5s-0.3,0.1-0.5,0.1h-0.8c-0.5,0-0.7-0.2-0.7-0.7V83.9z
				 M416,75.7c0-1.4-0.3-2.7-0.8-3.9c-0.6-1.2-1.3-2.3-2.2-3.3c-0.9-0.9-2-1.7-3.3-2.3c-1.2-0.6-2.5-0.8-3.9-0.9h-0.1
				c-1.4,0-2.6,0.3-3.9,0.8c-1.2,0.6-2.3,1.3-3.2,2.3c-0.9,0.9-1.7,2-2.2,3.3s-0.8,2.6-0.8,3.9s0.3,2.7,0.8,4
				c0.5,1.3,1.2,2.4,2.2,3.3c0.9,1,2,1.7,3.2,2.3s2.5,0.8,3.9,0.8c1.4,0,2.7-0.3,4-0.8c1.3-0.6,2.4-1.3,3.3-2.2
				c0.9-0.9,1.7-2,2.2-3.3C415.7,78.4,416,77.1,416,75.7z"/>
			<path class="st3" d="M422.4,82.7c0-0.1,0-0.1-0.1-0.2s0-0.1,0-0.2c0-0.2,0-0.3,0.1-0.4c0.1-0.1,0.2-0.1,0.3-0.2l0.7-0.3
				c0,0,0.1,0,0.1,0c0.1,0,0.1,0,0.1,0c0.1,0,0.2,0.1,0.3,0.2c0.1,0.1,0.1,0.3,0.2,0.4c0.1,0.2,0.1,0.3,0.2,0.5
				c0.1,0.2,0.1,0.3,0.2,0.5c0.2,0.5,0.6,1,1,1.4s1,0.7,1.5,1c0.5,0.2,1.1,0.4,1.6,0.6c0.6,0.1,1.1,0.2,1.5,0.2
				c0.6,0,1.2-0.1,1.9-0.3c0.7-0.2,1.4-0.4,2-0.8s1.2-0.8,1.6-1.4c0.4-0.6,0.6-1.3,0.6-2.2c0-0.8-0.2-1.4-0.6-2
				c-0.4-0.6-0.9-1-1.5-1.4c-0.6-0.4-1.3-0.7-2-1c-0.7-0.3-1.5-0.5-2.2-0.6c-0.9-0.2-1.8-0.5-2.7-0.9c-0.9-0.4-1.6-0.8-2.3-1.4
				c-0.7-0.5-1.2-1.2-1.6-1.9c-0.4-0.7-0.6-1.5-0.6-2.4c0-1,0.2-1.9,0.5-2.7s0.9-1.5,1.5-2.1c0.7-0.6,1.5-1,2.4-1.3
				c0.9-0.3,2-0.5,3.1-0.5c0.9,0,1.8,0.1,2.5,0.4c0.8,0.2,1.5,0.6,2.1,1s1.2,1,1.6,1.6c0.5,0.6,0.8,1.3,1.1,2l0,0
				c0.1,0.1,0.1,0.2,0.1,0.3c0,0.1-0.1,0.2-0.2,0.3c-0.1,0.1-0.2,0.2-0.4,0.3s-0.3,0.2-0.4,0.2c-0.1,0.1-0.2,0.1-0.3,0.1
				c-0.1,0-0.2,0-0.3-0.1c-0.1,0-0.1-0.1-0.2-0.2c-0.1-0.1-0.1-0.2-0.2-0.3c-0.1-0.1-0.1-0.3-0.2-0.4c-0.5-0.8-1.2-1.5-2.1-2.1
				c-0.9-0.6-2-0.8-3.2-0.8c-0.7,0-1.3,0.1-2,0.3c-0.6,0.2-1.2,0.4-1.7,0.8c-0.5,0.4-0.9,0.8-1.2,1.4c-0.3,0.6-0.4,1.2-0.4,1.9
				c0,0.6,0.2,1.2,0.6,1.7c0.4,0.5,0.9,0.9,1.4,1.3c0.6,0.4,1.2,0.7,1.8,0.9c0.6,0.2,1.2,0.4,1.8,0.5c0.1,0,0.2,0,0.2,0
				c0,0,0,0,0.1,0c1.2,0.3,2.2,0.6,3.2,1c1,0.4,1.8,0.9,2.4,1.5s1.2,1.3,1.6,2c0.4,0.8,0.6,1.6,0.6,2.6c0,1.1-0.2,2.1-0.7,2.9
				c-0.5,0.9-1.1,1.6-1.9,2.2c-0.8,0.6-1.7,1-2.7,1.3s-2.1,0.5-3.2,0.5c-0.9,0-1.8-0.1-2.7-0.4c-0.9-0.2-1.6-0.6-2.3-1.1
				c-0.7-0.5-1.3-1-1.8-1.7S422.6,83.6,422.4,82.7z"/>
		</g>
	</g>
</g>
</svg>
